<svg width="64" height="64" viewBox="0 0 64 64" fill="none" xmlns="http://www.w3.org/2000/svg">
<circle cx="32" cy="32" r="32" fill="#4031B7"/>
<path d="M42.228 17H21.7731C21.0199 17 20.4097 17.6109 20.4097 18.364V45.6366C20.4097 46.3898 21.0205 47.0006 21.7731 47.0006H42.228C42.9812 47.0006 43.5914 46.3898 43.5914 45.6366V18.364C43.5914 17.6109 42.9812 17 42.228 17ZM40.8639 19.7268V23.8177H23.1365V19.7268H40.8639ZM23.1365 44.2738V26.5451H40.8639V44.2719H23.1365V44.2738Z" fill="white"/>
<path d="M28.0126 27.7515H25.1817C24.8051 27.7515 24.5 28.0572 24.5 28.4332V31.2659C24.5 31.6425 24.8057 31.9476 25.1817 31.9476H28.0126C28.3891 31.9476 28.6943 31.6419 28.6943 31.2659V28.4332C28.6949 28.0559 28.3904 27.7515 28.0126 27.7515Z" fill="white"/>
<path d="M33.415 27.7515H30.5848C30.2082 27.7515 29.9031 28.0572 29.9031 28.4332V31.2659C29.9031 31.6425 30.2082 31.9476 30.5848 31.9476H33.415C33.7916 31.9476 34.0967 31.6419 34.0967 31.2659V28.4332C34.0973 28.0559 33.7916 27.7515 33.415 27.7515Z" fill="white"/>
<path d="M38.8181 27.7515H35.9872C35.6106 27.7515 35.3062 28.0572 35.3062 28.4332V31.2659C35.3062 31.6425 35.6113 31.9476 35.9872 31.9476H38.8181C39.1947 31.9476 39.4998 31.6419 39.4998 31.2659V28.4332C39.4998 28.0559 39.1947 27.7515 38.8181 27.7515Z" fill="white"/>
<path d="M28.0126 33.3118H25.1817C24.8051 33.3118 24.5 33.6169 24.5 33.9928V36.8256C24.5 37.2022 24.8057 37.5067 25.1817 37.5067H28.0126C28.3891 37.5067 28.6943 37.2016 28.6943 36.8256V33.9928C28.6949 33.6156 28.3904 33.3118 28.0126 33.3118Z" fill="white"/>
<path d="M33.415 33.3118H30.5848C30.2082 33.3118 29.9031 33.6169 29.9031 33.9928V36.8256C29.9031 37.2022 30.2082 37.5067 30.5848 37.5067H33.415C33.7916 37.5067 34.0967 37.2016 34.0967 36.8256V33.9928C34.0973 33.6156 33.7916 33.3118 33.415 33.3118Z" fill="white"/>
<path d="M28.0126 38.8718H25.1817C24.8051 38.8718 24.5 39.1769 24.5 39.5523V42.385C24.5 42.7629 24.8057 43.0667 25.1817 43.0667H28.0126C28.3891 43.0667 28.6943 42.761 28.6943 42.385V39.5523C28.6949 39.1757 28.3904 38.8718 28.0126 38.8718Z" fill="white"/>
<path d="M33.415 38.8718H30.5848C30.2082 38.8718 29.9031 39.1769 29.9031 39.5523V42.385C29.9031 42.7629 30.2082 43.0667 30.5848 43.0667H33.415C33.7916 43.0667 34.0967 42.761 34.0967 42.385V39.5523C34.0973 39.1757 33.7916 38.8718 33.415 38.8718Z" fill="white"/>
<path d="M38.8181 33.3118H35.9872C35.6106 33.3118 35.3062 33.6169 35.3062 33.9928V42.3852C35.3062 42.763 35.6113 43.0669 35.9872 43.0669H38.8181C39.1947 43.0669 39.4998 42.7611 39.4998 42.3852V33.9928C39.4998 33.6156 39.1947 33.3118 38.8181 33.3118Z" fill="white"/>
</svg>
