<svg width="178" height="178" viewBox="0 0 178 178" fill="none" xmlns="http://www.w3.org/2000/svg">
<circle cx="89" cy="89" r="89" fill="#4031B7"/>
<path d="M105.754 50.4754H99.1966C99.1966 47.7594 96.9946 45.5574 94.2786 45.5574H89.3606V43.918C89.3606 41.2021 87.1585 39 84.4425 39H71.3278C68.6118 39 66.4097 41.2021 66.4097 43.918V45.5574H61.4917C58.7757 45.5574 56.5737 47.7594 56.5737 50.4754H50.0163C45.4913 50.481 41.8252 54.1471 41.8196 58.6721V83.2623C41.8196 84.1676 42.5536 84.9016 43.4589 84.9016C44.3642 84.9016 45.0983 84.1676 45.0983 83.2623V58.6721C45.0983 55.9562 47.3003 53.7541 50.0163 53.7541H56.5737V57.0328H50.0163C49.111 57.0328 48.377 57.7668 48.377 58.6721V130.803C48.377 131.709 49.111 132.443 50.0163 132.443H105.754C106.659 132.443 107.393 131.709 107.393 130.803V58.6721C107.393 57.7668 106.659 57.0328 105.754 57.0328H99.1966V53.7541H105.754C108.47 53.7541 110.672 55.9562 110.672 58.6721V130.803C110.672 133.519 108.47 135.721 105.754 135.721H50.0163C47.3003 135.721 45.0983 133.519 45.0983 130.803V111.131C45.0983 110.226 44.3642 109.492 43.4589 109.492C42.5536 109.492 41.8196 110.226 41.8196 111.131V130.803C41.8252 135.328 45.4913 138.994 50.0163 139H105.754C110.279 138.994 113.945 135.328 113.951 130.803V58.6721C113.945 54.1471 110.279 50.481 105.754 50.4754ZM69.6884 43.918C69.6884 43.0127 70.4225 42.2787 71.3278 42.2787H84.4425C85.3479 42.2787 86.0819 43.0127 86.0819 43.918V45.5574H69.6884V43.918ZM104.115 60.3115V129.164H51.6556V60.3115H56.5737C56.5737 63.0274 58.7757 65.2295 61.4917 65.2295H81.1638C82.0692 65.2295 82.8032 64.4955 82.8032 63.5902C82.8032 62.6848 82.0692 61.9508 81.1638 61.9508H61.4917C60.5864 61.9508 59.8524 61.2168 59.8524 60.3115V50.4754C59.8524 49.5701 60.5864 48.8361 61.4917 48.8361H94.2786C95.1839 48.8361 95.9179 49.5701 95.9179 50.4754V60.3115C95.9179 61.2168 95.1839 61.9508 94.2786 61.9508C93.3733 61.9508 92.6393 62.6848 92.6393 63.5902C92.6393 64.4955 93.3733 65.2295 94.2786 65.2295C96.9946 65.2295 99.1966 63.0274 99.1966 60.3115H104.115Z" fill="#FFFEFE"/>
<path d="M92.6393 55.3935C92.6393 54.4882 91.9053 53.7542 91 53.7542H64.7704C63.8651 53.7542 63.1311 54.4882 63.1311 55.3935C63.1311 56.2988 63.8651 57.0328 64.7704 57.0328H91C91.9053 57.0328 92.6393 56.2988 92.6393 55.3935Z" fill="#FFFEFE"/>
<path d="M92.9539 103.977C92.3136 103.337 91.2762 103.337 90.6358 103.977L82.5231 112.092L79.0443 108.615C78.6329 108.189 78.0229 108.017 77.4498 108.168C76.8766 108.318 76.4292 108.765 76.2795 109.338C76.129 109.912 76.3003 110.521 76.7262 110.933L81.364 115.569C82.0044 116.209 83.0418 116.209 83.6822 115.569L92.9539 106.295C93.5943 105.655 93.5943 104.617 92.9539 103.977Z" fill="#FFFEFE"/>
<path d="M84.4425 93.0984C75.3885 93.0984 68.0491 100.438 68.0491 109.492C68.0491 118.546 75.3885 125.885 84.4425 125.885C85.3478 125.885 86.0819 125.151 86.0819 124.246C86.0819 123.341 85.3478 122.607 84.4425 122.607C78.1861 122.607 72.8006 118.186 71.5799 112.05C70.36 105.914 73.6443 99.7694 79.4244 97.3753C85.2054 94.9811 91.8716 97.0038 95.348 102.206C98.8236 107.408 98.1408 114.342 93.7167 118.766C93.0947 119.409 93.1043 120.431 93.7359 121.063C94.3682 121.696 95.3912 121.705 96.034 121.083C100.723 116.395 102.125 109.344 99.588 103.219C97.0506 97.0927 91.0727 93.0984 84.4425 93.0984Z" fill="#FFFEFE"/>
<path d="M71.3278 75.0656H87.7213C88.6266 75.0656 89.3606 74.3315 89.3606 73.4262C89.3606 72.5209 88.6266 71.7869 87.7213 71.7869H71.3278C70.4225 71.7869 69.6885 72.5209 69.6885 73.4262C69.6885 74.3315 70.4225 75.0656 71.3278 75.0656Z" fill="#FFFEFE"/>
<path d="M58.2131 83.2623H87.7213C88.6266 83.2623 89.3606 82.5283 89.3606 81.623C89.3606 80.7177 88.6266 79.9836 87.7213 79.9836H58.2131C57.3078 79.9836 56.5737 80.7177 56.5737 81.623C56.5737 82.5283 57.3078 83.2623 58.2131 83.2623Z" fill="#FFFEFE"/>
<path d="M58.2131 91.459H72.9672C73.8725 91.459 74.6065 90.725 74.6065 89.8196C74.6065 88.9143 73.8725 88.1803 72.9672 88.1803H58.2131C57.3078 88.1803 56.5737 88.9143 56.5737 89.8196C56.5737 90.725 57.3078 91.459 58.2131 91.459Z" fill="#FFFEFE"/>
<path d="M64.7705 96.3771H58.2131C57.3078 96.3771 56.5737 97.1111 56.5737 98.0164C56.5737 98.9217 57.3078 99.6558 58.2131 99.6558H64.7705C65.6758 99.6558 66.4098 98.9217 66.4098 98.0164C66.4098 97.1111 65.6758 96.3771 64.7705 96.3771Z" fill="#FFFEFE"/>
<path d="M61.4918 104.574H58.2131C57.3078 104.574 56.5737 105.308 56.5737 106.213C56.5737 107.118 57.3078 107.852 58.2131 107.852H61.4918C62.3971 107.852 63.1311 107.118 63.1311 106.213C63.1311 105.308 62.3971 104.574 61.4918 104.574Z" fill="#FFFEFE"/>
<path d="M94.2787 83.2623H97.5574C98.4627 83.2623 99.1968 82.5283 99.1968 81.623C99.1968 80.7177 98.4627 79.9836 97.5574 79.9836H94.2787C93.3734 79.9836 92.6394 80.7177 92.6394 81.623C92.6394 82.5283 93.3734 83.2623 94.2787 83.2623Z" fill="#FFFEFE"/>
<path d="M99.1967 73.4262C99.1967 74.3315 98.4626 75.0656 97.5573 75.0656C96.652 75.0656 95.918 74.3315 95.918 73.4262C95.918 72.5209 96.652 71.7869 97.5573 71.7869C98.4626 71.7869 99.1967 72.5209 99.1967 73.4262Z" fill="#FFFEFE"/>
<path d="M138.541 65.2295H133.623V60.3115C133.623 59.4061 132.889 58.6721 131.984 58.6721H125.426V53.7541C125.426 52.8488 126.16 52.1147 127.066 52.1147C127.971 52.1147 128.705 52.8488 128.705 53.7541C128.705 54.6594 129.439 55.3934 130.344 55.3934C131.25 55.3934 131.984 54.6594 131.984 53.7541C131.984 51.0381 129.782 48.8361 127.066 48.8361C124.35 48.8361 122.148 51.0381 122.148 53.7541V58.6721C121.242 58.6721 120.508 59.4061 120.508 60.3115V107.852C120.508 107.895 120.53 107.932 120.533 107.976C120.536 108.018 120.52 108.048 120.524 108.085L122.148 119.442V124.246C122.148 126.962 124.35 129.164 127.066 129.164C129.782 129.164 131.984 126.962 131.984 124.246V119.442L133.607 108.085C133.607 108.048 133.595 108.012 133.598 107.976C133.601 107.94 133.623 107.895 133.623 107.852V75.0656H136.902V89.8197C136.902 90.725 137.636 91.459 138.541 91.459C139.446 91.459 140.18 90.725 140.18 89.8197V66.8688C140.18 65.9635 139.446 65.2295 138.541 65.2295ZM130.344 61.9508V65.2295H123.787V61.9508H130.344ZM128.923 117.689H125.209L124.038 109.492H130.094L128.923 117.689ZM123.787 68.5082H130.344V71.7869H123.787V68.5082ZM128.705 124.246C128.705 125.151 127.971 125.885 127.066 125.885C126.16 125.885 125.426 125.151 125.426 124.246V120.967H128.705V124.246ZM130.344 106.213H123.787V75.0656H130.344V106.213ZM133.623 68.5082H136.902V71.7869H133.623V68.5082Z" fill="#FFFEFE"/>
</svg>
