<svg width="64" height="64" viewBox="0 0 64 64" fill="none" xmlns="http://www.w3.org/2000/svg">
<circle cx="32" cy="32" r="32" fill="#4031B7"/>
<g clip-path="url(#clip0)">
<path d="M45.2726 37.3462C44.9584 37.2695 44.6411 37.462 44.5645 37.7763C43.5503 41.9284 39.8525 44.8284 35.5719 44.8284C30.9036 44.8284 27.0321 41.3544 26.405 36.8562C26.4128 36.8562 26.4205 36.8564 26.4283 36.8564C32.1783 36.8564 36.8564 32.1783 36.8564 26.4283C36.8564 26.4201 36.8562 26.4121 36.8562 26.4041C40.5622 26.9174 43.6361 29.6235 44.5567 33.3357C44.6345 33.6498 44.9522 33.8411 45.2662 33.7633C45.5802 33.6855 45.7718 33.3678 45.694 33.0538C45.1433 30.8336 43.8474 28.824 42.0447 27.3953C40.5064 26.1759 38.7074 25.4329 36.7852 25.213C36.1812 20.0334 31.7672 16 26.4283 16C20.6781 16 16 20.6781 16 26.4283C16 31.7679 20.0343 36.1823 25.2146 36.7854C25.8179 41.9657 30.2323 46 35.5719 46C37.9546 46 40.1976 45.2177 42.0587 43.7373C43.8641 42.3013 45.1582 40.283 45.7027 38.0544C45.7794 37.7401 45.5869 37.4229 45.2726 37.3462ZM35.6848 26.4283C35.6848 31.5322 31.5324 35.6848 26.4283 35.6848C26.391 35.6848 26.3539 35.6838 26.3166 35.6834C26.3162 35.6461 26.3152 35.609 26.3152 35.5717C26.3152 30.4678 30.4678 26.3152 35.5719 26.3152C35.609 26.3152 35.6461 26.3159 35.6834 26.3164C35.6838 26.3537 35.6848 26.3908 35.6848 26.4283ZM17.1716 26.4283C17.1716 21.3242 21.324 17.1716 26.4283 17.1716C31.0966 17.1716 34.9679 20.6456 35.5953 25.1438C35.5875 25.1438 35.5797 25.1436 35.5719 25.1436C29.8217 25.1436 25.1436 29.8217 25.1436 35.5717C25.1436 35.5797 25.1441 35.5872 25.1441 35.5953C20.6456 34.9681 17.1716 31.0966 17.1716 26.4283Z" fill="#FFFDFD"/>
<path d="M45.8283 35.1579C45.7192 35.0482 45.5688 34.9862 45.4141 34.9862C45.26 34.9862 45.1087 35.0482 44.9998 35.1579C44.8908 35.2668 44.8281 35.4174 44.8281 35.5719C44.8281 35.7262 44.8908 35.8766 44.9998 35.9862C45.1087 36.0951 45.26 36.1579 45.4141 36.1579C45.5688 36.1579 45.7192 36.0951 45.8283 35.9862C45.9377 35.8766 45.9998 35.7262 45.9998 35.5719C45.9998 35.4174 45.9377 35.2668 45.8283 35.1579Z" fill="#FFFDFD"/>
</g>
<defs>
<clipPath id="clip0">
<rect width="30" height="30" fill="white" transform="translate(16 16)"/>
</clipPath>
</defs>
</svg>
