<svg width="64" height="64" viewBox="0 0 64 64" fill="none" xmlns="http://www.w3.org/2000/svg">
<circle cx="32" cy="32" r="32" fill="#4031B7"/>
<path d="M40.9102 45.1211V18.6367L38.2734 16L36.5156 17.7578L34.7578 16L33 17.7578L31.2422 16L29.4844 17.7578L27.7266 16L25.9688 17.7578L24.2109 16L21.5742 18.6367V41.6066C21.5742 44.0295 23.5459 46 25.9688 46H41.0613C40.9635 45.7252 40.9102 45.4293 40.9102 45.1211ZM37.3945 38.9688H25.0898V37.2109H37.3945V38.9688ZM32.1211 30.1797V31.9375H26.8477V30.1797H32.1211ZM26.8477 28.4219V26.6641H32.1211V28.4219H26.8477ZM32.1211 33.6953V35.4531H26.8477V33.6953H32.1211ZM35.6367 30.1797V31.9375H33.8789V30.1797H35.6367ZM33.8789 28.4219V26.6641H35.6367V28.4219H33.8789ZM35.6367 33.6953V35.4531H33.8789V33.6953H35.6367ZM37.3945 24.9062H25.0898V23.1484H37.3945V24.9062Z" fill="white"/>
<path d="M42.668 38.9688V45.1211C42.668 45.6065 43.0615 46 43.5469 46C44.0323 46 44.4258 45.6065 44.4258 45.1211V38.9688H42.668Z" fill="white"/>
</svg>
