<svg width="64" height="64" viewBox="0 0 64 64" fill="none" xmlns="http://www.w3.org/2000/svg">
<circle cx="32" cy="32" r="32" fill="#4031B7"/>
<path d="M21.4531 30.0625C22.1622 30.0625 22.804 29.778 23.2782 29.3212L25.8799 30.6219C25.8669 30.7279 25.8477 30.832 25.8477 30.9414C25.8477 32.3953 27.0305 33.5781 28.4844 33.5781C29.9382 33.5781 31.1211 32.3953 31.1211 30.9414C31.1211 30.5356 31.0213 30.1557 30.8567 29.8119L34.3861 26.2825C34.7299 26.4471 35.1098 26.5469 35.5156 26.5469C36.9695 26.5469 38.1523 25.364 38.1523 23.9102C38.1523 23.6364 38.0986 23.3775 38.0207 23.1292L41.0873 20.8299C41.5057 21.1093 42.0072 21.2734 42.5469 21.2734C44.0007 21.2734 45.1836 20.0906 45.1836 18.6367C45.1836 17.1829 44.0007 16 42.5469 16C41.093 16 39.9102 17.1829 39.9102 18.6367C39.9102 18.9105 39.9639 19.1693 40.0418 19.4177L36.9752 21.717C36.5568 21.4375 36.0553 21.2734 35.5156 21.2734C34.0618 21.2734 32.8789 22.4563 32.8789 23.9102C32.8789 24.316 32.9787 24.6959 33.1433 25.0397L29.6139 28.569C29.2701 28.4045 28.8902 28.3047 28.4844 28.3047C27.7753 28.3047 27.1335 28.5892 26.6593 29.046L24.0576 27.7453C24.0706 27.6393 24.0898 27.5352 24.0898 27.4258C24.0898 25.9719 22.907 24.7891 21.4531 24.7891C19.9993 24.7891 18.8164 25.9719 18.8164 27.4258C18.8164 28.8796 19.9993 30.0625 21.4531 30.0625Z" fill="white"/>
<path d="M46.1211 44.2422H45.1836V25.668C45.1836 25.1823 44.7904 24.7891 44.3047 24.7891H40.7891C40.3034 24.7891 39.9102 25.1823 39.9102 25.668V44.2422H38.1523V30.9414C38.1523 30.4557 37.7591 30.0625 37.2734 30.0625H33.7578C33.2721 30.0625 32.8789 30.4557 32.8789 30.9414V44.2422H31.1211V37.9727C31.1211 37.487 30.7279 37.0938 30.2422 37.0938H26.7266C26.2409 37.0938 25.8477 37.487 25.8477 37.9727V44.2422H24.0898V34.457C24.0898 33.9713 23.6966 33.5781 23.2109 33.5781H19.6953C19.2096 33.5781 18.8164 33.9713 18.8164 34.457V44.2422H17.8789C17.3932 44.2422 17 44.6354 17 45.1211C17 45.6068 17.3932 46 17.8789 46H46.1211C46.6068 46 47 45.6068 47 45.1211C47 44.6354 46.6068 44.2422 46.1211 44.2422Z" fill="white"/>
</svg>
