<svg width="64" height="64" viewBox="0 0 64 64" fill="none" xmlns="http://www.w3.org/2000/svg">
<circle cx="32" cy="32" r="32" fill="#4031B7"/>
<path d="M42.4307 17H21.5696C21.1506 17 20.811 17.3397 20.811 17.7586V46.2414C20.811 46.6603 21.1506 47 21.5696 47H42.4307C42.8497 47 43.1892 46.6603 43.1892 46.2414V17.7586C43.1892 17.3397 42.8495 17 42.4307 17ZM31.626 20.2404H38.6808C39.0999 20.2404 39.4394 20.5801 39.4394 20.9989C39.4394 21.4178 39.0999 21.7575 38.6808 21.7575H31.626C31.207 21.7575 30.8674 21.4178 30.8674 20.9989C30.8674 20.5801 31.207 20.2404 31.626 20.2404ZM31.626 24.1471H38.6808C39.0999 24.1471 39.4394 24.4868 39.4394 24.9057C39.4394 25.3245 39.0999 25.6642 38.6808 25.6642H31.626C31.207 25.6642 30.8674 25.3245 30.8674 24.9057C30.8674 24.4868 31.207 24.1471 31.626 24.1471ZM25.8368 23.0004C25.5514 22.7907 25.3651 22.4539 25.3651 22.0736V21.3908C25.3651 20.7565 25.8813 20.2404 26.5157 20.2404C27.1502 20.2404 27.6662 20.7565 27.6662 21.3908V22.0736C27.6662 22.4539 27.4799 22.7909 27.1945 23.0004C28.0893 23.209 28.7587 24.0114 28.7587 24.9689C28.7587 25.3878 28.4192 25.7275 28.0001 25.7275H25.0312C24.6121 25.7275 24.2726 25.3878 24.2726 24.9689C24.2726 24.0114 24.942 23.209 25.8368 23.0004ZM25.0159 28.0538H38.6807C39.0997 28.0538 39.4393 28.3935 39.4393 28.8124C39.4393 29.2312 39.0997 29.5709 38.6807 29.5709H25.0159C24.5968 29.5709 24.2573 29.2312 24.2573 28.8124C24.2573 28.3935 24.597 28.0538 25.0159 28.0538ZM25.0159 31.9605H38.6807C39.0997 31.9605 39.4393 32.3002 39.4393 32.7191C39.4393 33.138 39.0997 33.4776 38.6807 33.4776H25.0159C24.5968 33.4776 24.2573 33.138 24.2573 32.7191C24.2573 32.3002 24.597 31.9605 25.0159 31.9605ZM25.0159 35.8672H38.6807C39.0997 35.8672 39.4393 36.2069 39.4393 36.6258C39.4393 37.0447 39.0997 37.3843 38.6807 37.3843H25.0159C24.5968 37.3843 24.2573 37.0447 24.2573 36.6258C24.2573 36.2069 24.597 35.8672 25.0159 35.8672ZM28.8467 42.8299H25.0159C24.5968 42.8299 24.2573 42.4902 24.2573 42.0713C24.2573 41.6524 24.5968 41.3127 25.0159 41.3127H28.8467C29.2657 41.3127 29.6053 41.6524 29.6053 42.0713C29.6053 42.4904 29.2657 42.8299 28.8467 42.8299ZM38.9843 42.8299H35.1534C34.7344 42.8299 34.3948 42.4902 34.3948 42.0713C34.3948 41.6524 34.7344 41.3127 35.1534 41.3127H38.9843C39.4033 41.3127 39.7428 41.6524 39.7428 42.0713C39.7428 42.4904 39.4033 42.8299 38.9843 42.8299Z" fill="white"/>
</svg>
