<svg width="64" height="64" viewBox="0 0 64 64" fill="none" xmlns="http://www.w3.org/2000/svg">
<circle cx="32" cy="32" r="32" fill="#4031B7"/>
<path d="M41.6034 29.0737H41.1622V25.1653C41.1622 20.1135 37.0549 16 31.9969 16C26.9452 16 22.8317 20.1073 22.8317 25.1653C22.8317 25.6313 23.2045 26.0041 23.6705 26.0041C24.1365 26.0041 24.5094 25.6313 24.5094 25.1653C24.5094 21.0394 27.8648 17.6777 31.9969 17.6777C36.1229 17.6777 39.4845 21.0331 39.4845 25.1653V29.0737H22.3967C21.5019 29.0737 20.7749 29.8007 20.7749 30.6955V41.1408C20.7749 43.819 22.9559 46 25.6341 46H38.366C41.0442 46 43.2252 43.819 43.2252 41.1408V30.6955C43.2252 29.8007 42.4982 29.0737 41.6034 29.0737ZM41.5475 41.1408C41.5475 42.8931 40.1245 44.3223 38.366 44.3223H25.6403C23.888 44.3223 22.4588 42.8993 22.4588 41.1408V30.7514H41.5475V41.1408Z" fill="#FFFDFD"/>
<path d="M32.0032 40.7991C33.7368 40.7991 35.1411 39.3886 35.1411 37.6611C35.1411 35.9275 33.7306 34.5232 32.0032 34.5232C30.2695 34.5232 28.8652 35.9337 28.8652 37.6611C28.8652 39.3886 30.2695 40.7991 32.0032 40.7991ZM32.0032 36.1947C32.811 36.1947 33.4634 36.8533 33.4634 37.6549C33.4634 38.4565 32.811 39.1214 32.0032 39.1214C31.1954 39.1214 30.5429 38.4627 30.5429 37.6611C30.5429 36.8596 31.1954 36.1947 32.0032 36.1947Z" fill="#FFFDFD"/>
</svg>
