<svg width="64" height="64" viewBox="0 0 64 64" fill="none" xmlns="http://www.w3.org/2000/svg">
<circle cx="32" cy="32" r="32" fill="#4031B7"/>
<path d="M21.25 20.25C20.0095 20.25 19 21.2595 19 22.5C19 23.7405 20.0095 24.75 21.25 24.75C22.4905 24.75 23.5 23.7405 23.5 22.5C23.5 21.2595 22.4905 20.25 21.25 20.25ZM21.25 23.75C20.561 23.75 20 23.1895 20 22.5C20 21.8105 20.561 21.25 21.25 21.25C21.939 21.25 22.5 21.8105 22.5 22.5C22.5 23.1895 21.939 23.75 21.25 23.75Z" fill="#FFFDFD"/>
<path d="M41 22.25C41.2761 22.25 41.5 22.0261 41.5 21.75C41.5 21.4739 41.2761 21.25 41 21.25C40.7239 21.25 40.5 21.4739 40.5 21.75C40.5 22.0261 40.7239 22.25 41 22.25Z" fill="#FFFDFD"/>
<path d="M39 22.25C39.2761 22.25 39.5 22.0261 39.5 21.75C39.5 21.4739 39.2761 21.25 39 21.25C38.7239 21.25 38.5 21.4739 38.5 21.75C38.5 22.0261 38.7239 22.25 39 22.25Z" fill="#FFFDFD"/>
<path d="M42 23.75C42.2761 23.75 42.5 23.5261 42.5 23.25C42.5 22.9739 42.2761 22.75 42 22.75C41.7239 22.75 41.5 22.9739 41.5 23.25C41.5 23.5261 41.7239 23.75 42 23.75Z" fill="#FFFDFD"/>
<path d="M40 23.75C40.2761 23.75 40.5 23.5261 40.5 23.25C40.5 22.9739 40.2761 22.75 40 22.75C39.7239 22.75 39.5 22.9739 39.5 23.25C39.5 23.5261 39.7239 23.75 40 23.75Z" fill="#FFFDFD"/>
<path d="M37 22.25C37.2761 22.25 37.5 22.0261 37.5 21.75C37.5 21.4739 37.2761 21.25 37 21.25C36.7239 21.25 36.5 21.4739 36.5 21.75C36.5 22.0261 36.7239 22.25 37 22.25Z" fill="#FFFDFD"/>
<path d="M38 23.75C38.2761 23.75 38.5 23.5261 38.5 23.25C38.5 22.9739 38.2761 22.75 38 22.75C37.7239 22.75 37.5 22.9739 37.5 23.25C37.5 23.5261 37.7239 23.75 38 23.75Z" fill="#FFFDFD"/>
<path d="M35 22.25C35.2761 22.25 35.5 22.0261 35.5 21.75C35.5 21.4739 35.2761 21.25 35 21.25C34.7239 21.25 34.5 21.4739 34.5 21.75C34.5 22.0261 34.7239 22.25 35 22.25Z" fill="#FFFDFD"/>
<path d="M36 23.75C36.2761 23.75 36.5 23.5261 36.5 23.25C36.5 22.9739 36.2761 22.75 36 22.75C35.7239 22.75 35.5 22.9739 35.5 23.25C35.5 23.5261 35.7239 23.75 36 23.75Z" fill="#FFFDFD"/>
<path d="M33 22.25C33.2761 22.25 33.5 22.0261 33.5 21.75C33.5 21.4739 33.2761 21.25 33 21.25C32.7239 21.25 32.5 21.4739 32.5 21.75C32.5 22.0261 32.7239 22.25 33 22.25Z" fill="#FFFDFD"/>
<path d="M34 23.75C34.2761 23.75 34.5 23.5261 34.5 23.25C34.5 22.9739 34.2761 22.75 34 22.75C33.7239 22.75 33.5 22.9739 33.5 23.25C33.5 23.5261 33.7239 23.75 34 23.75Z" fill="#FFFDFD"/>
<path d="M46 25.446V19.554C46 18.2835 44.9665 17.25 43.696 17.25H18.304C17.0335 17.25 16 18.2835 16 19.554V25.4455C16 26.18 16.3515 26.8275 16.8885 27.2495C16.3515 27.672 16 28.32 16 29.054V34.9455C16 35.68 16.3515 36.3275 16.8885 36.7495C16.3515 37.172 16 37.82 16 38.554V44.4455C16 45.7165 17.0335 46.75 18.304 46.75H43.6955C44.966 46.75 45.9995 45.7165 45.9995 44.446V38.554C45.9995 37.8195 45.648 37.172 45.111 36.75C45.6485 36.328 46 35.68 46 34.946V29.054C46 28.3195 45.6485 27.672 45.1115 27.25C45.6485 26.828 46 26.18 46 25.446ZM45 38.554V44.4455C45 45.1645 44.415 45.7495 43.696 45.7495H18.304C17.585 45.75 17 45.165 17 44.446V38.554C17 37.835 17.585 37.25 18.304 37.25H43.6955C44.415 37.25 45 37.835 45 38.554ZM45 29.054V34.9455C45 35.6645 44.415 36.2495 43.696 36.2495H18.304C17.585 36.25 17 35.665 17 34.946V29.054C17 28.335 17.585 27.75 18.304 27.75H43.6955C44.415 27.75 45 28.335 45 29.054ZM18.304 26.75C17.585 26.75 17 26.165 17 25.446V19.554C17 18.835 17.585 18.25 18.304 18.25H43.6955C44.415 18.25 45 18.835 45 19.554V25.4455C45 26.1645 44.415 26.7495 43.696 26.7495H18.304V26.75Z" fill="#FFFDFD"/>
<path d="M21.25 34.25C22.4905 34.25 23.5 33.2405 23.5 32C23.5 30.7595 22.4905 29.75 21.25 29.75C20.0095 29.75 19 30.7595 19 32C19 33.2405 20.0095 34.25 21.25 34.25ZM21.25 30.75C21.939 30.75 22.5 31.3105 22.5 32C22.5 32.6895 21.939 33.25 21.25 33.25C20.561 33.25 20 32.6895 20 32C20 31.3105 20.561 30.75 21.25 30.75Z" fill="#FFFDFD"/>
<path d="M41 31.75C41.2761 31.75 41.5 31.5261 41.5 31.25C41.5 30.9739 41.2761 30.75 41 30.75C40.7239 30.75 40.5 30.9739 40.5 31.25C40.5 31.5261 40.7239 31.75 41 31.75Z" fill="#FFFDFD"/>
<path d="M39 31.75C39.2761 31.75 39.5 31.5261 39.5 31.25C39.5 30.9739 39.2761 30.75 39 30.75C38.7239 30.75 38.5 30.9739 38.5 31.25C38.5 31.5261 38.7239 31.75 39 31.75Z" fill="#FFFDFD"/>
<path d="M42 33.25C42.2761 33.25 42.5 33.0261 42.5 32.75C42.5 32.4739 42.2761 32.25 42 32.25C41.7239 32.25 41.5 32.4739 41.5 32.75C41.5 33.0261 41.7239 33.25 42 33.25Z" fill="#FFFDFD"/>
<path d="M40 33.25C40.2761 33.25 40.5 33.0261 40.5 32.75C40.5 32.4739 40.2761 32.25 40 32.25C39.7239 32.25 39.5 32.4739 39.5 32.75C39.5 33.0261 39.7239 33.25 40 33.25Z" fill="#FFFDFD"/>
<path d="M37 31.75C37.2761 31.75 37.5 31.5261 37.5 31.25C37.5 30.9739 37.2761 30.75 37 30.75C36.7239 30.75 36.5 30.9739 36.5 31.25C36.5 31.5261 36.7239 31.75 37 31.75Z" fill="#FFFDFD"/>
<path d="M38 33.25C38.2761 33.25 38.5 33.0261 38.5 32.75C38.5 32.4739 38.2761 32.25 38 32.25C37.7239 32.25 37.5 32.4739 37.5 32.75C37.5 33.0261 37.7239 33.25 38 33.25Z" fill="#FFFDFD"/>
<path d="M35 31.75C35.2761 31.75 35.5 31.5261 35.5 31.25C35.5 30.9739 35.2761 30.75 35 30.75C34.7239 30.75 34.5 30.9739 34.5 31.25C34.5 31.5261 34.7239 31.75 35 31.75Z" fill="#FFFDFD"/>
<path d="M36 33.25C36.2761 33.25 36.5 33.0261 36.5 32.75C36.5 32.4739 36.2761 32.25 36 32.25C35.7239 32.25 35.5 32.4739 35.5 32.75C35.5 33.0261 35.7239 33.25 36 33.25Z" fill="#FFFDFD"/>
<path d="M33 31.75C33.2761 31.75 33.5 31.5261 33.5 31.25C33.5 30.9739 33.2761 30.75 33 30.75C32.7239 30.75 32.5 30.9739 32.5 31.25C32.5 31.5261 32.7239 31.75 33 31.75Z" fill="#FFFDFD"/>
<path d="M34 33.25C34.2761 33.25 34.5 33.0261 34.5 32.75C34.5 32.4739 34.2761 32.25 34 32.25C33.7239 32.25 33.5 32.4739 33.5 32.75C33.5 33.0261 33.7239 33.25 34 33.25Z" fill="#FFFDFD"/>
<path d="M21.25 43.75C22.4905 43.75 23.5 42.7405 23.5 41.5C23.5 40.2595 22.4905 39.25 21.25 39.25C20.0095 39.25 19 40.2595 19 41.5C19 42.7405 20.0095 43.75 21.25 43.75ZM21.25 40.25C21.939 40.25 22.5 40.8105 22.5 41.5C22.5 42.1895 21.939 42.75 21.25 42.75C20.561 42.75 20 42.1895 20 41.5C20 40.8105 20.561 40.25 21.25 40.25Z" fill="#FFFDFD"/>
<path d="M41 41.25C41.2761 41.25 41.5 41.0261 41.5 40.75C41.5 40.4739 41.2761 40.25 41 40.25C40.7239 40.25 40.5 40.4739 40.5 40.75C40.5 41.0261 40.7239 41.25 41 41.25Z" fill="#FFFDFD"/>
<path d="M39 41.25C39.2761 41.25 39.5 41.0261 39.5 40.75C39.5 40.4739 39.2761 40.25 39 40.25C38.7239 40.25 38.5 40.4739 38.5 40.75C38.5 41.0261 38.7239 41.25 39 41.25Z" fill="#FFFDFD"/>
<path d="M42 42.75C42.2761 42.75 42.5 42.5261 42.5 42.25C42.5 41.9739 42.2761 41.75 42 41.75C41.7239 41.75 41.5 41.9739 41.5 42.25C41.5 42.5261 41.7239 42.75 42 42.75Z" fill="#FFFDFD"/>
<path d="M40 42.75C40.2761 42.75 40.5 42.5261 40.5 42.25C40.5 41.9739 40.2761 41.75 40 41.75C39.7239 41.75 39.5 41.9739 39.5 42.25C39.5 42.5261 39.7239 42.75 40 42.75Z" fill="#FFFDFD"/>
<path d="M37 41.25C37.2761 41.25 37.5 41.0261 37.5 40.75C37.5 40.4739 37.2761 40.25 37 40.25C36.7239 40.25 36.5 40.4739 36.5 40.75C36.5 41.0261 36.7239 41.25 37 41.25Z" fill="#FFFDFD"/>
<path d="M38 42.75C38.2761 42.75 38.5 42.5261 38.5 42.25C38.5 41.9739 38.2761 41.75 38 41.75C37.7239 41.75 37.5 41.9739 37.5 42.25C37.5 42.5261 37.7239 42.75 38 42.75Z" fill="#FFFDFD"/>
<path d="M35 41.25C35.2761 41.25 35.5 41.0261 35.5 40.75C35.5 40.4739 35.2761 40.25 35 40.25C34.7239 40.25 34.5 40.4739 34.5 40.75C34.5 41.0261 34.7239 41.25 35 41.25Z" fill="#FFFDFD"/>
<path d="M36 42.75C36.2761 42.75 36.5 42.5261 36.5 42.25C36.5 41.9739 36.2761 41.75 36 41.75C35.7239 41.75 35.5 41.9739 35.5 42.25C35.5 42.5261 35.7239 42.75 36 42.75Z" fill="#FFFDFD"/>
<path d="M33 41.25C33.2761 41.25 33.5 41.0261 33.5 40.75C33.5 40.4739 33.2761 40.25 33 40.25C32.7239 40.25 32.5 40.4739 32.5 40.75C32.5 41.0261 32.7239 41.25 33 41.25Z" fill="#FFFDFD"/>
<path d="M34 42.75C34.2761 42.75 34.5 42.5261 34.5 42.25C34.5 41.9739 34.2761 41.75 34 41.75C33.7239 41.75 33.5 41.9739 33.5 42.25C33.5 42.5261 33.7239 42.75 34 42.75Z" fill="#FFFDFD"/>
</svg>
