<svg width="64" height="64" viewBox="0 0 64 64" fill="none" xmlns="http://www.w3.org/2000/svg">
<circle cx="32" cy="32" r="32" fill="#4031B7"/>
<path d="M46.0416 44.3252L38.9016 36.8992C40.7374 34.7169 41.7433 31.971 41.7433 29.1125C41.7433 22.4338 36.3095 17 29.6308 17C22.9521 17 17.5183 22.4338 17.5183 29.1125C17.5183 35.7912 22.9521 41.225 29.6308 41.225C32.1381 41.225 34.5274 40.4687 36.5702 39.0331L43.7645 46.5155C44.0652 46.8278 44.4697 47 44.9031 47C45.3133 47 45.7025 46.8436 45.9979 46.5592C46.6257 45.9552 46.6457 44.9535 46.0416 44.3252ZM29.6308 20.1598C34.5674 20.1598 38.5835 24.1759 38.5835 29.1125C38.5835 34.0491 34.5674 38.0652 29.6308 38.0652C24.6942 38.0652 20.6781 34.0491 20.6781 29.1125C20.6781 24.1759 24.6942 20.1598 29.6308 20.1598Z" fill="white"/>
</svg>
