<svg width="178" height="178" viewBox="0 0 178 178" fill="none" xmlns="http://www.w3.org/2000/svg">
<circle cx="89" cy="89" r="89" fill="#4031B7"/>
<g clip-path="url(#clip0)">
<path d="M65.9962 57.5488H61.0095V47.5754C61.0095 46.6572 60.2653 45.913 59.3471 45.913C58.4288 45.913 57.6846 46.6572 57.6846 47.5754V59.2113C57.6846 60.1296 58.4288 60.8738 59.3471 60.8738H65.9962C66.9137 60.8738 67.6579 60.1296 67.6579 59.2113C67.6579 58.293 66.9137 57.5488 65.9962 57.5488Z" fill="#FFFEFE"/>
<path d="M134.148 54.2246H133.3C133.125 53.7233 132.921 53.232 132.689 52.7531L133.284 52.1613C134.712 50.7379 135.141 48.5942 134.373 46.7306C133.604 44.8662 131.79 43.6486 129.774 43.6439H129.765C128.44 43.6424 127.169 44.1723 126.238 45.1153L125.646 45.7102C125.168 45.4789 124.676 45.2747 124.175 45.0983V44.2504C124.175 41.4964 121.942 39.2637 119.188 39.2637C116.434 39.2637 114.202 41.4964 114.202 44.2504V45.0983C113.7 45.2747 113.209 45.4789 112.73 45.7102L112.138 45.1153C111.207 44.1723 109.937 43.6424 108.611 43.6439H108.603C106.587 43.6486 104.771 44.8662 104.003 46.7306C103.235 48.5942 103.664 50.7379 105.092 52.1613L105.687 52.7531C105.456 53.232 105.252 53.7233 105.075 54.2246H104.228C101.473 54.2246 99.2408 56.4572 99.2408 59.2112C99.2408 61.9653 101.473 64.1979 104.228 64.1979H105.078C105.255 64.6992 105.459 65.1904 105.69 65.6693L105.096 66.2611C103.586 67.7449 103.195 70.027 104.123 71.9293L97.672 78.3774C95.3875 76.8255 92.7147 75.9451 89.9552 75.8337H88.4111C85.7236 75.9498 83.1181 76.8 80.8793 78.2923L74.6115 72.0253C81.5531 63.7972 80.7702 51.5579 72.8361 44.2814C64.902 37.004 52.641 37.2802 45.0419 44.9057C37.4428 52.5319 37.2107 64.7936 44.5151 72.7022C51.8195 80.6108 64.0618 81.3503 72.2659 74.3794L78.5422 80.6541C77.716 81.9158 77.248 83.3795 77.1892 84.8865C77.1714 85.2625 77.1629 85.5912 77.1497 85.9355C76.414 85.7529 75.6435 85.7576 74.9101 85.9487C72.5916 86.559 72.3356 89.5792 72.8941 92.3038C73.7412 94.5721 75.5646 96.3374 77.8591 97.111C77.6077 99.6578 78.7 102.152 80.7416 103.695C80.9543 103.873 81.1423 104.051 81.3218 104.229C80.525 106.584 79.3777 108.806 77.9171 110.818C73.5726 111.159 69.4717 112.961 66.2813 115.929C63.7013 118.999 62.4078 122.947 62.6709 126.948C62.6709 138.668 86.5444 139 89.2675 139C91.9898 139 115.863 138.668 115.863 126.948C116.124 122.95 114.831 119.004 112.253 115.936C109.063 112.968 104.962 111.167 100.617 110.825C99.1356 108.795 97.9799 106.547 97.1916 104.16C97.3494 104.008 97.5087 103.855 97.6898 103.701C99.7576 102.136 100.851 99.5997 100.571 97.0213C102.898 96.2771 104.763 94.5171 105.639 92.2358C106.224 89.5893 105.987 86.5474 103.544 85.937C102.801 85.7669 102.028 85.7669 101.284 85.937C101.272 85.5943 101.264 85.2725 101.244 84.8935C101.186 83.4375 100.745 82.0226 99.9657 80.791L106.472 74.2842C107.137 74.6083 107.867 74.7785 108.606 74.7832H108.615C109.94 74.7855 111.211 74.2556 112.142 73.3118L112.733 72.7169C113.211 72.9459 113.701 73.1485 114.202 73.3242V74.1712C114.202 76.9253 116.434 79.1587 119.188 79.1587C121.942 79.1587 124.175 76.9253 124.175 74.1712V73.3242C124.676 73.1478 125.168 72.9435 125.646 72.7122L126.238 73.3071C127.156 74.2757 128.44 74.8095 129.774 74.7785C131.79 74.7739 133.604 73.5555 134.373 71.6918C135.141 69.8282 134.712 67.6845 133.284 66.2611L132.689 65.6693C132.92 65.1904 133.124 64.6992 133.3 64.1979H134.148C136.902 64.1979 139.135 61.9653 139.135 59.2112C139.135 56.4572 136.902 54.2246 134.148 54.2246ZM42.7242 59.2112C42.7242 50.0308 50.1663 42.5887 59.3467 42.5887C68.5271 42.5887 75.9692 50.0308 75.9692 59.2112C75.9692 68.3916 68.5271 75.8337 59.3467 75.8337C50.1701 75.8237 42.7342 68.3878 42.7242 59.2112ZM76.1355 91.5426C75.9661 90.7504 75.9313 89.9358 76.0326 89.132C76.431 89.1591 76.8171 89.2806 77.1598 89.4864C77.2193 90.7412 77.3802 91.989 77.6417 93.2175C77.0066 92.7951 76.4883 92.2187 76.1355 91.5426ZM94.7532 107.156C95.4308 108.637 96.2083 110.071 97.0802 111.448C94.5404 112.217 91.9171 112.677 89.2675 112.819C86.6233 112.674 84.0054 112.214 81.4711 111.446C82.3259 110.092 83.0902 108.683 83.7586 107.229C84.7187 108.437 86.1916 109.123 87.735 109.08H90.6971C92.2745 109.122 93.7776 108.407 94.7392 107.156H94.7532ZM89.2675 124.781C85.8396 122.143 83.0841 118.733 81.2251 114.827C83.8445 115.582 86.5444 116.024 89.2675 116.144C91.9898 116.025 94.6882 115.582 97.3061 114.827C95.4494 118.733 92.6946 122.143 89.2675 124.781ZM112.539 126.942C112.539 134.063 95.3047 135.675 89.2675 135.675C83.2303 135.675 65.9958 134.072 65.9958 126.948C65.7545 123.797 66.7238 120.673 68.7066 118.212C71.1589 115.998 74.2371 114.6 77.5164 114.209C78.208 116.837 80.5087 122.073 88.2332 128.246C88.2765 128.272 88.3206 128.295 88.3662 128.315C88.4599 128.376 88.5597 128.427 88.6641 128.468C88.7585 128.509 88.8575 128.54 88.9581 128.561C89.0633 128.579 89.1693 128.588 89.276 128.586C89.3789 128.588 89.4818 128.579 89.5831 128.561C89.6868 128.54 89.7881 128.508 89.8856 128.466C89.9885 128.426 90.086 128.376 90.178 128.315C90.2244 128.295 90.2685 128.273 90.3111 128.246C98.0278 122.073 100.336 116.837 101.028 114.209C104.308 114.6 107.386 115.999 109.838 118.212C111.817 120.674 112.782 123.799 112.539 126.948V126.942ZM95.5476 101.159C94.5249 102.043 93.619 103.053 92.8508 104.166C91.9086 105.451 91.6494 105.755 90.6902 105.755H87.735C86.7842 105.755 86.5243 105.451 85.5735 104.166C84.8061 103.052 83.8994 102.042 82.876 101.159C81.4672 100.117 80.8097 98.338 81.2019 96.6306C81.2235 96.1966 81.2467 95.7565 81.2467 95.3008C81.2328 94.4181 81.1214 93.5401 80.9141 92.6829C80.4027 90.1749 80.2619 87.6057 80.4971 85.0575C80.7833 79.5471 88.2138 79.1664 88.4614 79.1533H89.8794C89.9552 79.1533 97.6186 79.5161 97.9064 85.059C98.1439 87.6073 98.0038 90.1772 97.4886 92.6845C97.2828 93.5424 97.1714 94.4204 97.1567 95.3023C97.1567 95.7526 97.1784 96.1951 97.1993 96.6322C97.5985 98.3349 96.9502 100.113 95.5476 101.159ZM102.427 91.3763C102.065 92.1073 101.502 92.7208 100.804 93.1432C101.063 91.907 101.221 90.6514 101.277 89.3897C101.655 89.1986 102.078 89.1096 102.501 89.132C102.605 89.8786 102.581 90.6375 102.427 91.3763ZM135.811 59.2112C135.811 60.1295 135.067 60.8737 134.148 60.8737H132.681C131.588 60.8753 130.625 61.5932 130.31 62.6406C130.1 63.3384 129.822 64.0146 129.48 64.6582C128.958 65.6237 129.134 66.8166 129.911 67.5909L130.946 68.6175C131.418 69.0917 131.56 69.8035 131.306 70.4223C131.052 71.042 130.451 71.4482 129.782 71.4536C129.34 71.4543 128.916 71.278 128.606 70.9631L127.58 69.9296C126.804 69.1521 125.611 68.9772 124.645 69.4987C124.002 69.8406 123.326 70.1191 122.627 70.3303C121.574 70.6413 120.851 71.6083 120.851 72.7068V74.1712C120.851 75.0895 120.106 75.8337 119.188 75.8337C118.27 75.8337 117.526 75.0895 117.526 74.1712V72.7037C117.524 71.6106 116.807 70.6482 115.76 70.3334C115.061 70.1206 114.385 69.839 113.741 69.494C113.375 69.3006 112.969 69.1985 112.555 69.1977C111.899 69.1977 111.27 69.46 110.809 69.9265L109.781 70.96C109.471 71.2741 109.048 71.4512 108.606 71.4505C107.688 71.4505 106.944 70.7063 106.944 69.788C106.948 69.3463 107.127 68.9239 107.443 68.6144L108.476 67.5871C109.254 66.8127 109.43 65.6182 108.907 64.6536C108.565 64.0091 108.287 63.3338 108.076 62.6352C107.758 61.5854 106.789 60.8691 105.692 60.8737H104.228C103.31 60.8737 102.566 60.1295 102.566 59.2112C102.566 58.293 103.31 57.5487 104.228 57.5487H105.696C106.788 57.5472 107.751 56.8301 108.066 55.7834C108.277 55.0848 108.554 54.4087 108.897 53.7643C109.418 52.7988 109.242 51.6051 108.465 50.8315L107.431 49.8042C106.958 49.3299 106.816 48.619 107.071 48.0001C107.324 47.3804 107.925 46.9743 108.595 46.9689C109.036 46.9681 109.459 47.1445 109.77 47.4586L110.797 48.4929C111.572 49.2696 112.765 49.4444 113.731 48.923C114.375 48.5811 115.051 48.3026 115.749 48.0922C116.803 47.7812 117.525 46.8134 117.526 45.7149V44.2504C117.526 43.3329 118.27 42.5887 119.188 42.5887C120.106 42.5887 120.851 43.3329 120.851 44.2504V45.7187C120.852 46.8118 121.57 47.7742 122.618 48.0891C123.316 48.2995 123.992 48.578 124.635 48.9199C125.601 49.4421 126.794 49.2665 127.567 48.4875L128.595 47.4539C128.905 47.1398 129.329 46.9627 129.771 46.9635C130.688 46.9635 131.432 47.7077 131.432 48.6259C131.429 49.0677 131.25 49.4901 130.934 49.7995L129.9 50.8269C129.121 51.6012 128.947 52.7957 129.47 53.7604C129.812 54.4048 130.09 55.0802 130.3 55.7787C130.615 56.8316 131.585 57.5518 132.684 57.5487H134.148C135.067 57.5487 135.811 58.293 135.811 59.2112Z" fill="#FFFEFE"/>
<path d="M119.189 50.8997C114.598 50.8997 110.877 54.6207 110.877 59.2113C110.877 63.8011 114.598 67.5222 119.189 67.5222C123.778 67.5222 127.499 63.8011 127.499 59.2113C127.494 54.623 123.776 50.9051 119.189 50.8997ZM119.189 64.198C116.435 64.198 114.202 61.9653 114.202 59.2113C114.202 56.4573 116.435 54.2246 119.189 54.2246C121.943 54.2246 124.175 56.4573 124.175 59.2113C124.175 60.5342 123.65 61.8021 122.715 62.7374C121.779 63.6727 120.511 64.198 119.189 64.198Z" fill="#FFFEFE"/>
</g>
<defs>
<clipPath id="clip0">
<rect width="100" height="100" fill="white" transform="translate(39 39)"/>
</clipPath>
</defs>
</svg>
