<svg width="64" height="64" viewBox="0 0 64 64" fill="none" xmlns="http://www.w3.org/2000/svg">
<circle cx="32" cy="32" r="32" fill="#4031B7"/>
<path d="M35.1037 23.7099C36.4908 24.5796 37.4635 26.0514 37.6406 27.7597C38.2063 28.024 38.8341 28.176 39.4998 28.176C41.93 28.176 43.8997 26.2064 43.8997 23.7766C43.8997 21.3464 41.93 19.3767 39.4998 19.3767C37.0928 19.3775 35.1404 21.3119 35.1037 23.7099ZM32.2213 32.7185C34.6514 32.7185 36.6211 30.7485 36.6211 28.3187C36.6211 25.8889 34.6511 23.9192 32.2213 23.9192C29.7915 23.9192 27.8207 25.8893 27.8207 28.3191C27.8207 30.7489 29.7915 32.7185 32.2213 32.7185ZM34.0876 33.0184H30.3542C27.2478 33.0184 24.7207 35.5459 24.7207 38.6523V43.218L24.7323 43.2895L25.0468 43.3879C28.0112 44.3142 30.5867 44.6231 32.7065 44.6231C36.8469 44.6231 39.2467 43.4426 39.3946 43.3673L39.6885 43.2187H39.72V38.6523C39.7211 35.5459 37.1939 33.0184 34.0876 33.0184ZM41.3669 28.4763H37.6623C37.6222 29.9585 36.9895 31.2932 35.9888 32.2532C38.7499 33.0742 40.7701 35.6347 40.7701 38.659V40.066C44.4279 39.9319 46.5358 38.8952 46.6747 38.8256L46.9685 38.6766H47V34.1094C47 31.0034 44.4729 28.4763 41.3669 28.4763ZM24.5009 28.1768C25.3617 28.1768 26.1625 27.9256 26.8409 27.4976C27.0565 26.091 27.8106 24.8619 28.8877 24.0248C28.8922 23.9424 28.9 23.8608 28.9 23.7777C28.9 21.3475 26.93 19.3778 24.5009 19.3778C22.0704 19.3778 20.1011 21.3475 20.1011 23.7777C20.1011 26.2067 22.0704 28.1768 24.5009 28.1768ZM28.4523 32.2532C27.4564 31.2981 26.8259 29.9705 26.7799 28.4973C26.6425 28.4872 26.5066 28.4763 26.3665 28.4763H22.6335C19.5271 28.4763 17 31.0034 17 34.1094V38.6758L17.0116 38.7462L17.3261 38.8454C19.7042 39.5879 21.8267 39.9301 23.6702 40.0379V38.659C23.6709 35.6347 25.6904 33.075 28.4523 32.2532Z" fill="white"/>
</svg>
