<svg width="64" height="64" viewBox="0 0 64 64" fill="none" xmlns="http://www.w3.org/2000/svg">
<circle cx="32" cy="32" r="32" fill="#4031B7"/>
<path d="M38.0198 16.4282H23.9698C22.6491 16.4282 21.5747 17.5026 21.5747 18.8233V43.572H23.0117V23.5135H38.9778V43.5717H40.4148V18.823C40.4149 17.5025 39.3405 16.4282 38.0198 16.4282ZM26.34 20.8195H24.5836V19.3824H26.34V20.8195ZM29.2938 20.8195H27.5373V19.3824H29.2938V20.8195Z" fill="white"/>
<path d="M32.6309 30.3192H31.5915C32.5804 30.0557 33.3102 29.1564 33.3102 28.0842C33.3102 26.8053 32.2736 25.7687 30.9949 25.7687C29.716 25.7687 28.6794 26.8053 28.6794 28.0842C28.6794 29.1564 29.409 30.0557 30.3983 30.3192H29.3584C28.4325 30.3192 27.6819 31.0701 27.6819 31.9958V37.1852H29.1089V43.2724H32.8808V37.1852H34.3075V31.9958C34.3074 31.0701 33.557 30.3192 32.6309 30.3192Z" fill="white"/>
<path d="M41.947 33.8122L44.9138 35.8898L45.7379 34.7129L42.7712 32.6353L41.947 33.8122Z" fill="white"/>
<path d="M46 29.6294H42.3779V31.0664H46V29.6294Z" fill="white"/>
<path d="M45.7277 26.0087L44.9033 24.8313L41.9356 26.9093L42.76 28.0866L45.7277 26.0087Z" fill="white"/>
<path d="M16.2621 34.7123L17.0862 35.8892L20.053 33.8116L19.2288 32.6347L16.2621 34.7123Z" fill="white"/>
<path d="M19.6222 29.6294H16V31.0664H19.6222V29.6294Z" fill="white"/>
<path d="M16.2734 26.0074L19.2402 28.085L20.0645 26.9079L17.0977 24.8303L16.2734 26.0074Z" fill="white"/>
</svg>
