<svg width="178" height="178" viewBox="0 0 178 178" fill="none" xmlns="http://www.w3.org/2000/svg">
<circle cx="89" cy="89" r="89" fill="#4031B7"/>
<path d="M84.3125 110.875C84.3125 101.398 76.6016 93.6875 67.125 93.6875C57.6484 93.6875 49.9375 101.398 49.9375 110.875C49.9375 120.352 57.6484 128.062 67.125 128.062C76.6016 128.062 84.3125 120.352 84.3125 110.875ZM67.125 124.938C59.3719 124.938 53.0625 118.63 53.0625 110.875C53.0625 103.12 59.3719 96.8125 67.125 96.8125C74.8781 96.8125 81.1875 103.12 81.1875 110.875C81.1875 118.63 74.8781 124.938 67.125 124.938Z" fill="white"/>
<path d="M56.1875 109.312H59.3125V112.438H56.1875V109.312Z" fill="white"/>
<path d="M74.9375 109.312H78.0625V112.438H74.9375V109.312Z" fill="white"/>
<path d="M134.312 106.188C134.312 96.5016 127.98 88.2781 119.241 85.4094C122.664 83.1781 124.938 79.3203 124.938 74.9375C124.938 68.0453 119.33 62.4375 112.438 62.4375C105.545 62.4375 99.9375 68.0453 99.9375 74.9375C99.9375 79.3187 102.208 83.1734 105.628 85.4062C102.402 86.4594 99.4391 88.25 96.9687 90.7203C93.3437 94.3453 91.15 99.0187 90.6656 104.055L89.4016 103.633C89.0203 102.453 88.5516 101.317 88.0016 100.236L90.0187 96.2031L89 95.1844V84.3125C89 74.6266 82.6672 66.4031 73.9281 63.5344C77.3516 61.3031 79.625 57.4453 79.625 53.0625C79.625 46.1703 74.0172 40.5625 67.125 40.5625C60.2328 40.5625 54.625 46.1703 54.625 53.0625C54.625 57.4453 56.8984 61.3031 60.3219 63.5344C51.5828 66.4031 45.25 74.6266 45.25 84.3125V95.1844L44.2313 96.2031L46.2484 100.236C45.6984 101.316 45.2297 102.453 44.8484 103.633L40.5625 105.061V116.688L44.8484 118.116C45.2297 119.295 45.6984 120.431 46.2484 121.512L44.2313 125.547L52.4531 133.769L56.4859 131.753C57.5656 132.303 58.7031 132.77 59.8828 133.153L61.3109 137.438H67.125H72.9391H134.312V115.562C136.036 115.562 137.438 114.161 137.438 112.438V109.312C137.438 107.589 136.036 106.188 134.312 106.188ZM131.188 106.188H126.5V99.9375H123.375V106.188H115.13L123.683 91.2187C128.23 94.6437 131.188 100.07 131.188 106.188ZM112.438 87.4375C113.695 87.4375 114.923 87.5672 116.113 87.8031L112.438 91.4781L108.756 87.7969C109.956 87.5594 111.188 87.4375 112.438 87.4375ZM116.909 96.775L114.531 93.8031L119.505 88.8297C120.03 89.0438 120.541 89.2844 121.041 89.5453L116.909 96.775ZM110.344 93.8031L107.966 96.775L103.827 89.5312C104.328 89.2719 104.838 89.0297 105.359 88.8172L110.344 93.8031ZM112.438 96.1891L115.241 99.6938L112.438 104.602L109.634 99.6938L112.438 96.1891ZM103.062 74.9375C103.062 69.7672 107.267 65.5625 112.438 65.5625C117.608 65.5625 121.812 69.7672 121.812 74.9375C121.812 80.1078 117.608 84.3125 112.438 84.3125C107.267 84.3125 103.062 80.1078 103.062 74.9375ZM99.1781 92.9297C99.8078 92.3 100.487 91.7391 101.188 91.2109L109.745 106.188H101.5V99.9375H98.375V106.188H93.6875C93.6875 101.18 95.6375 96.4703 99.1781 92.9297ZM85.875 84.3125V92.0594L81.7969 87.9797L81.1875 88.2859V78.0625H78.0625V89.8484L77.7641 89.9984C76.6844 89.4484 75.5469 88.9813 74.3672 88.5984L72.9391 84.3125H69.8172L78.3703 69.3438C82.9172 72.7687 85.875 78.1953 85.875 84.3125ZM58.5219 67.6703C60.0172 66.8938 61.6219 66.3031 63.3172 65.9516L61.9516 73.6734L58.5219 67.6703ZM66.5562 65.5906C66.7469 65.5859 66.9328 65.5625 67.125 65.5625C67.3172 65.5625 67.5031 65.5859 67.6938 65.5906L69.8734 77.9141L67.125 82.7266L64.3766 77.9156L66.5562 65.5906ZM72.2969 73.6734L70.9313 65.9516C72.6266 66.3031 74.2312 66.8938 75.7266 67.6703L72.2969 73.6734ZM57.75 53.0625C57.75 47.8922 61.9547 43.6875 67.125 43.6875C72.2953 43.6875 76.5 47.8922 76.5 53.0625C76.5 58.2328 72.2953 62.4375 67.125 62.4375C61.9547 62.4375 57.75 58.2328 57.75 53.0625ZM48.375 84.3125C48.375 78.1953 51.3328 72.7687 55.8797 69.3438L64.4328 84.3125H61.3109L59.8813 88.5984C58.7016 88.9797 57.5656 89.4484 56.4844 89.9984L56.1875 89.8484V78.0625H53.0625V88.2859L52.4531 87.9813L48.375 92.0594V84.3125ZM67.125 134.312H63.5641L62.3313 130.617L61.5391 130.389C60.0266 129.958 58.5891 129.366 57.2672 128.628L56.5469 128.227L53.0687 129.964L48.0328 124.928L49.7703 121.45L49.3688 120.73C48.6328 119.406 48.0391 117.969 47.6078 116.459L47.3812 115.666L43.6875 114.436V107.312L47.3828 106.081L47.6094 105.287C48.0406 103.777 48.6344 102.339 49.3703 101.017L49.7719 100.297L48.0344 96.8188L53.0703 91.7812L56.5469 93.5203L57.2672 93.1188C58.5891 92.3813 60.0266 91.7891 61.5391 91.3578L62.3313 91.1297L63.5641 87.4375H70.6875L71.9203 91.1328L72.7125 91.3609C74.225 91.7922 75.6625 92.3844 76.9844 93.1219L77.7047 93.5234L81.1813 91.7844L86.2172 96.8219L84.4797 100.3L84.8813 101.02C85.6172 102.344 86.2109 103.781 86.6422 105.291L86.8687 106.084L90.5625 107.314V107.75V114.436L86.8672 115.667L86.6406 116.461C86.2094 117.972 85.6156 119.409 84.8797 120.731L84.4781 121.452L86.2156 124.93L81.1797 129.966L77.7016 128.228L76.9813 128.63C75.6594 129.367 74.2219 129.959 72.7094 130.391L71.9172 130.619L70.6859 134.312H67.125ZM131.188 134.312H73.9813L74.3687 133.152C75.5484 132.77 76.6859 132.302 77.7656 131.752L81.7984 133.767L90.0203 125.545L88.0031 121.512C88.5531 120.433 89.0219 119.295 89.4031 118.116L93.6875 116.689V115.562H131.188V134.312ZM134.312 112.438H93.6875V109.312H134.312V112.438Z" fill="white"/>
<path d="M124.938 128.062H128.062V131.188H124.938V128.062Z" fill="white"/>
<path d="M118.688 128.062H121.812V131.188H118.688V128.062Z" fill="white"/>
<path d="M112.438 128.062H115.562V131.188H112.438V128.062Z" fill="white"/>
</svg>
