<svg width="64" height="64" viewBox="0 0 64 64" fill="none" xmlns="http://www.w3.org/2000/svg">
<circle cx="32" cy="32" r="32" fill="#4031B7"/>
<g clip-path="url(#clip0)">
<path d="M19.9784 40.5473H18.9376C18.4518 40.5473 18.0001 40.9404 18.0001 41.4262C18.0001 41.912 18.4518 42.3051 18.9376 42.3051H19.9784C20.3425 43.326 21.309 44.063 22.4533 44.063C23.5977 44.063 24.5642 43.326 24.9282 42.3051H28.7678C29.1318 43.326 30.0983 44.063 31.2427 44.063C32.387 44.063 33.3535 43.326 33.7176 42.3051H37.5571C37.9212 43.326 38.8876 44.063 40.032 44.063C41.1764 44.063 42.1428 43.326 42.5069 42.3051H45.0003L44.7427 42.5627C44.3994 42.906 44.3994 43.4622 44.7427 43.8055C44.9144 43.9772 45.1393 44.0631 45.3641 44.0631C45.589 44.0631 45.8139 43.9772 45.9855 43.8055L47.7424 42.0487C47.8239 41.9674 47.8886 41.87 47.9333 41.7618C48.0221 41.547 48.0221 41.3054 47.9333 41.0906C47.8885 40.9825 47.8239 40.8851 47.7424 40.8038L45.9855 39.0469C45.6422 38.7036 45.086 38.7036 44.7427 39.0469C44.3994 39.3902 44.3994 39.9465 44.7427 40.2898L45.0002 40.5473H42.5068C42.2413 39.8027 41.6555 39.2169 40.9109 38.9514V32.9074C41.7385 31.6911 44.4266 27.5916 44.4266 25.6054C44.4266 23.1823 42.455 21.2107 40.0319 21.2107C37.6088 21.2107 35.6373 23.1823 35.6373 25.6054C35.6373 27.5916 38.3253 31.6911 39.153 32.9074V38.9513C38.4084 39.2169 37.8226 39.8026 37.557 40.5473H33.7175C33.4519 39.8026 32.8662 39.2169 32.1215 38.9513V27.6337C32.9492 26.4175 35.6373 22.318 35.6373 20.3318C35.6373 17.9087 33.6657 15.9371 31.2426 15.9371C28.8195 15.9371 26.8479 17.9087 26.8479 20.3318C26.8479 22.318 29.536 26.4175 30.3637 27.6337V38.9513C29.619 39.2169 29.0333 39.8026 28.7677 40.5473H24.9282C24.6626 39.8026 24.0768 39.2169 23.3322 38.9513V36.4231C24.1599 35.2068 26.8479 31.1073 26.8479 29.1211C26.8479 26.698 24.8764 24.7265 22.4533 24.7265C20.0302 24.7265 18 26.698 18 29.1211C18 31.1073 20.7467 35.2068 21.5743 36.4231V38.9513C20.8298 39.2169 20.244 39.8026 19.9784 40.5473ZM40.032 24.7265C40.5174 24.7265 40.9109 25.12 40.9109 25.6054C40.9109 26.0908 40.5174 26.4843 40.032 26.4843C39.5466 26.4843 39.1531 26.0908 39.1531 25.6054C39.1531 25.12 39.5466 24.7265 40.032 24.7265ZM31.2427 19.4529C31.7281 19.4529 32.1216 19.8464 32.1216 20.3318C32.1216 20.8172 31.7281 21.2107 31.2427 21.2107C30.7573 21.2107 30.3637 20.8172 30.3637 20.3318C30.3637 19.8464 30.7573 19.4529 31.2427 19.4529ZM22.4533 28.2422C22.9387 28.2422 23.3323 28.6357 23.3323 29.1211C23.3323 29.6065 22.9387 30.0001 22.4533 30.0001C21.9679 30.0001 21.5744 29.6065 21.5744 29.1211C21.5744 28.6357 21.9679 28.2422 22.4533 28.2422Z" fill="white"/>
</g>
<defs>
<clipPath id="clip0">
<rect width="30" height="30" fill="white" transform="translate(18 15)"/>
</clipPath>
</defs>
</svg>
